<svg id="Layer_1" data-name="Layer 1" xmlns="http://www.w3.org/2000/svg" viewBox="0 0 408.26535 737.9681"><path d="M882.486,377.145Q788.27286,200.33792,694.03021,23.54645c-2.58624-4.85419-5.0498-9.59918-11.5401-9.71112-6.88727-.11878-9.39294,4.89752-12.09833,9.97583Q576.19547,200.62659,481.91522,377.39722c-6.5282,12.245-5.05884,16.70215,7.50019,23.029q91.86813,46.28064,183.67352,92.68469c6.33179,3.21491,11.51709,3.17908,17.81085-.01569q92.704-47.05709,185.65387-93.629c5.57019-2.79529,9.56494-5.90461,7.67212-13.44715C886.58905,382.88477,884.04376,380.06836,882.486,377.145Zm-210.79889,91.7854c-52.81811-26.71777-104.54406-52.88318-156.25988-79.04334.83587-2.68988,3.14379-2.708,4.77185-3.41192,48.192-20.838,96.45538-41.51148,144.59985-62.45844,5.48853-2.388,7.06512-2.36352,7.02673,4.37934C671.562,374.74255,671.68713,421.09137,671.68713,468.93042Zm-.05578-395.05328q.0931,108.67785.06653,217.35577c.00067,3.4.34619,6.387-3.945,8.22913-51.12384,21.94751-102.15985,44.09967-155.30237,67.09991C565.67114,266.53223,617.94843,168.27539,670.23035,70.01,672.66327,70.98749,671.63037,72.69684,671.63135,73.87714Zm21.75885,394.8728V321.314c52.11133,22.48163,103.93493,44.83912,157.259,67.844C797.34,416.13879,745.74738,442.25085,693.3902,468.74994Zm41.0924-153.13086c-12.26794-5.30579-24.47589-10.7561-36.82708-15.86011-3.71717-1.53607-4.9112-3.5672-4.90375-7.61316.1358-73.89508.09924-147.7904,1.43591-222.34539,52.30237,98.287,104.60474,196.57415,157.86139,296.65454C811.55627,348.94635,773.01831,332.2854,734.4826,315.61908Z" transform="translate(-478.02181 -13.83326)" style="fill:#fff"/><path d="M876.38184,446.381c-3.90619-.27594-6.95661,1.94824-10.16309,3.61322q-88.66947,46.04169-177.259,92.23657c-4.82782,2.52607-8.45917,2.56537-13.30957-.02618-24.22522-12.94348-48.6698-25.47693-73.05243-38.12512q-53.4072-27.70422-106.84418-55.35077c-7.25879-3.75134-12.67487-2.84107-16.02161,2.50232-3.41668,5.45526-1.1773,10.08441,2.02973,14.78338q35.00015,51.28308,69.84668,102.6709Q611.118,656.29679,670.5675,743.94891c2.83643,4.18488,5.71961,7.94159,11.6081,7.85083,5.41119.00287,8.20379-3.86316,11.04053-8.02069q72.04742-105.59253,144.20575-211.10943c15.38562-22.51569,30.83465-44.98835,46.12695-67.5672C889.31555,456.588,885.52454,447.02667,876.38184,446.381ZM671.68713,704.41669q-.7554.34479-1.51086.68945Q596.57419,596.65671,522.71234,487.82452c3.2226-.29968,5.25513,1.69269,7.4317,2.81714,44.9455,23.222,89.807,46.607,134.7865,69.76264,4.82141,2.48211,6.98548,5.06823,6.94037,10.98871C671.5332,615.73218,671.68713,660.075,671.68713,704.41669Zm22.53827.92285q-.6871-.29361-1.3742-.5871,0-68.0202-.074-136.0401c-.0083-3.38708,1.05884-5.20611,4.0733-6.76044q69.68262-35.92886,139.26276-72.05621c1.24231-.64331,2.39978-1.82727,4.61957-.44653Q767.45206,597.43415,694.2254,705.33954Z" transform="translate(-478.02181 -13.83326)" style="fill:#fff"/></svg>