<svg id="svg2" xmlns="http://www.w3.org/2000/svg" viewBox="0 0 900 600"><rect id="rect6" width="900" height="600" style="fill:#c1272d"/><g id="g8"><path id="path10" d="M414.5941,264.512,300,264.62027l130.4499,99.58938,19.56234-14.93841-79.073-60.40312,36.13885-.10825Z" style="fill:#006233;stroke:#000;stroke-width:1.4800413846969604px"/><path id="path12" d="M485.48174,264.55127,449.97226,150,400.19669,311.214l19.55812,14.94454,30.20468-97.73212,11.26544,36.10242Z" style="fill:#006233;stroke:#000;stroke-width:1.4800413846969604px"/><path id="path14" d="M507.35192,335.44551,600,264.54067l-161.21288.04638-7.47478,24.17462,97.74055.00134-29.17639,22.42078Z" style="fill:#006233;stroke:#000;stroke-width:1.4800413846969604px"/><path id="path16" d="M449.98076,379.22068l92.76913,70.72973L492.89041,288.765l-24.17783-.00378,30.20228,97.733L469.61745,364.2486Z" style="fill:#006233;stroke:#000;stroke-width:1.4800413846969604px"/><path id="path18" d="M392.65389,335.38182,357.34028,450l130.39807-99.66438-7.46794-24.177-79.07454,60.401,11.06963-36.16928Z" style="fill:#006233;stroke:#000;stroke-width:1.4800413846969604px"/></g></svg>