<svg xmlns="http://www.w3.org/2000/svg" xmlns:xlink="http://www.w3.org/1999/xlink" viewBox="0 0 2875.71087 2476.16705"><defs><style>.cls-1{isolation:isolate;}.cls-2{fill:#f9ca47;}.cls-3{fill:url(#linear-gradient);}.cls-4{fill:url(#linear-gradient-2);}.cls-5{fill:url(#linear-gradient-3);}.cls-10,.cls-45,.cls-50,.cls-6,.cls-61,.cls-74,.cls-75,.cls-76,.cls-8,.cls-81,.cls-87,.cls-9{fill:none;}.cls-6,.cls-8,.cls-81,.cls-9{stroke:#343947;}.cls-45,.cls-50,.cls-6,.cls-61,.cls-75,.cls-76,.cls-8,.cls-81,.cls-87,.cls-9{stroke-miterlimit:10;}.cls-6{stroke-width:0.70948px;}.cls-7{fill:url(#linear-gradient-4);}.cls-45,.cls-61,.cls-74,.cls-76,.cls-8,.cls-87{stroke-width:0.51943px;}.cls-9{stroke-width:0.5207px;}.cls-10{stroke:#3358cc;stroke-width:0.97369px;}.cls-10,.cls-74{stroke-linecap:round;stroke-linejoin:round;}.cls-11{fill:url(#linear-gradient-5);}.cls-12,.cls-13,.cls-14,.cls-15,.cls-16,.cls-17,.cls-18{fill:#3358cc;}.cls-12{opacity:0.9;}.cls-13{opacity:0.75;}.cls-14{opacity:0.6;}.cls-15{opacity:0.45;}.cls-16,.cls-19,.cls-52,.cls-53,.cls-54,.cls-62,.cls-65,.cls-66,.cls-77{opacity:0.3;}.cls-17{opacity:0.1;}.cls-20{fill:#6582db;}.cls-21{opacity:0.7;}.cls-22,.cls-26,.cls-28,.cls-30,.cls-32,.cls-34,.cls-36,.cls-38,.cls-40,.cls-42,.cls-44,.cls-78,.cls-80{opacity:0.2;}.cls-23{fill:url(#linear-gradient-6);}.cls-24{fill:url(#linear-gradient-7);}.cls-25{fill:#83b9f7;}.cls-26,.cls-28,.cls-30,.cls-32,.cls-34,.cls-36,.cls-38,.cls-40,.cls-42,.cls-44,.cls-52,.cls-53,.cls-54,.cls-62,.cls-65,.cls-66,.cls-77,.cls-78,.cls-80,.cls-83,.cls-85,.cls-86,.cls-88{mix-blend-mode:multiply;}.cls-26{fill:url(#linear-gradient-8);}.cls-27{fill:url(#linear-gradient-9);}.cls-28{fill:url(#linear-gradient-10);}.cls-29{fill:url(#linear-gradient-11);}.cls-30{fill:url(#linear-gradient-12);}.cls-31{fill:url(#linear-gradient-13);}.cls-32{fill:url(#linear-gradient-14);}.cls-33{fill:url(#linear-gradient-15);}.cls-34{fill:url(#linear-gradient-16);}.cls-35{fill:url(#linear-gradient-17);}.cls-36{fill:url(#linear-gradient-18);}.cls-37{fill:url(#linear-gradient-19);}.cls-38{fill:url(#linear-gradient-20);}.cls-39{fill:url(#linear-gradient-21);}.cls-40{fill:url(#linear-gradient-22);}.cls-41{fill:url(#linear-gradient-23);}.cls-42{fill:url(#linear-gradient-24);}.cls-43{fill:url(#linear-gradient-25);}.cls-44{fill:url(#linear-gradient-26);}.cls-45,.cls-75{stroke:#fff;}.cls-46{fill:url(#linear-gradient-27);}.cls-47{fill:#fff;}.cls-48{fill:#804e00;}.cls-49{fill:#343947;}.cls-50{stroke:#636363;}.cls-50,.cls-75{stroke-width:0.25971px;}.cls-51{fill:#ff9c87;}.cls-52{fill:url(#linear-gradient-28);}.cls-53{fill:url(#linear-gradient-29);}.cls-54{fill:url(#linear-gradient-30);}.cls-55{fill:#ffedcc;}.cls-56{fill:#ffdfb8;}.cls-57{fill:#a96955;}.cls-58{fill:#b8785f;}.cls-59{fill:#fe6e6e;}.cls-60{fill:#ef5a5a;}.cls-61{stroke:#27439c;}.cls-63{fill:url(#linear-gradient-31);}.cls-64{fill:url(#linear-gradient-32);}.cls-65{fill:url(#linear-gradient-33);}.cls-66{fill:url(#linear-gradient-34);}.cls-67{fill:#636363;}.cls-68{fill:#0030c2;}.cls-69{fill:#5ec778;}.cls-70{fill:#bababa;}.cls-71{fill:#d1d1d1;}.cls-72{fill:url(#linear-gradient-35);}.cls-73{fill:url(#linear-gradient-36);}.cls-74{stroke:#bababa;}.cls-76{stroke:#276f85;}.cls-77{fill:url(#linear-gradient-37);}.cls-78{fill:url(#linear-gradient-38);}.cls-79{fill:#ffa600;}.cls-80{fill:url(#linear-gradient-39);}.cls-81{stroke-width:0.48418px;}.cls-82{fill:#277085;}.cls-83,.cls-85,.cls-86,.cls-88{opacity:0.4;}.cls-83{fill:url(#linear-gradient-40);}.cls-84{fill:#ff005d;}.cls-85{fill:url(#linear-gradient-41);}.cls-86{fill:url(#linear-gradient-42);}.cls-87{stroke:#73002a;}.cls-88{fill:url(#linear-gradient-43);}</style><linearGradient id="linear-gradient" x1="1422.12953" y1="581.35592" x2="2224.7252" y2="581.35592" gradientUnits="userSpaceOnUse"><stop offset="0.3341" stop-color="#ffe4a1"/><stop offset="1" stop-color="#ffca44"/></linearGradient><linearGradient id="linear-gradient-2" x1="1597.44279" y1="1687.38198" x2="1597.44279" y2="2491.53087" gradientUnits="userSpaceOnUse"><stop offset="0" stop-color="#ff8cb6"/><stop offset="0.15427" stop-color="#ff91ad"/><stop offset="0.40914" stop-color="#ff9f94"/><stop offset="0.73088" stop-color="#ffb56b"/><stop offset="1" stop-color="#ffca44"/></linearGradient><linearGradient id="linear-gradient-3" x1="305.57461" y1="1791.39566" x2="826.71983" y2="1791.39566" gradientUnits="userSpaceOnUse"><stop offset="0" stop-color="#5a9e70"/><stop offset="1" stop-color="#ffca44"/></linearGradient><linearGradient id="linear-gradient-4" x1="2903.95218" y1="2034.69018" x2="2300.3768" y2="2034.69018" xlink:href="#linear-gradient-3"/><linearGradient id="linear-gradient-5" x1="2472.28404" y1="1448.73278" x2="2472.28404" y2="454.03987" xlink:href="#linear-gradient-2"/><linearGradient id="linear-gradient-6" x1="1502.10442" y1="503.65243" x2="1502.10442" y2="1016.6451" gradientUnits="userSpaceOnUse"><stop offset="0" stop-color="#6b9cff"/><stop offset="1" stop-color="#fff"/></linearGradient><linearGradient id="linear-gradient-7" x1="1609.50506" y1="1307.4556" x2="1451.21436" y2="1307.4556" gradientUnits="userSpaceOnUse"><stop offset="0" stop-color="#6b9cff"/><stop offset="1" stop-color="#5683df"/></linearGradient><linearGradient id="linear-gradient-8" x1="1436.69497" y1="1201.14813" x2="1436.69497" y2="1377.21508" gradientUnits="userSpaceOnUse"><stop offset="0" stop-color="#fff"/><stop offset="1"/></linearGradient><linearGradient id="linear-gradient-9" x1="1609.50506" y1="1219.64913" x2="1451.21436" y2="1219.64913" xlink:href="#linear-gradient-7"/><linearGradient id="linear-gradient-10" x1="1436.69497" y1="1113.34078" x2="1436.69497" y2="1289.40919" xlink:href="#linear-gradient-8"/><linearGradient id="linear-gradient-11" x1="1949.29556" y1="1483.14564" x2="1791.00486" y2="1483.14564" xlink:href="#linear-gradient-7"/><linearGradient id="linear-gradient-12" x1="1776.48547" y1="1376.83817" x2="1776.48547" y2="1552.90511" xlink:href="#linear-gradient-8"/><linearGradient id="linear-gradient-13" x1="1949.29556" y1="1395.33917" x2="1791.00486" y2="1395.33917" xlink:href="#linear-gradient-7"/><linearGradient id="linear-gradient-14" x1="1776.48547" y1="1289.03082" x2="1776.48547" y2="1465.09923" xlink:href="#linear-gradient-8"/><linearGradient id="linear-gradient-15" x1="1949.29556" y1="1128.44869" x2="1791.00486" y2="1128.44869" xlink:href="#linear-gradient-7"/><linearGradient id="linear-gradient-16" x1="1776.48547" y1="1022.14033" x2="1776.48547" y2="1198.20874" xlink:href="#linear-gradient-8"/><linearGradient id="linear-gradient-17" x1="1949.29556" y1="1040.64222" x2="1791.00486" y2="1040.64222" xlink:href="#linear-gradient-7"/><linearGradient id="linear-gradient-18" x1="1776.48547" y1="934.33475" x2="1776.48547" y2="1110.4017" xlink:href="#linear-gradient-8"/><linearGradient id="linear-gradient-19" x1="1269.71465" y1="1483.14564" x2="1111.42389" y2="1483.14564" xlink:href="#linear-gradient-7"/><linearGradient id="linear-gradient-20" x1="1096.90398" y1="1376.83817" x2="1096.90398" y2="1552.90511" xlink:href="#linear-gradient-8"/><linearGradient id="linear-gradient-21" x1="1269.71465" y1="1395.33917" x2="1111.42389" y2="1395.33917" xlink:href="#linear-gradient-7"/><linearGradient id="linear-gradient-22" x1="1096.90398" y1="1289.03082" x2="1096.90398" y2="1465.09923" xlink:href="#linear-gradient-8"/><linearGradient id="linear-gradient-23" x1="1269.71465" y1="1128.44869" x2="1111.42389" y2="1128.44869" xlink:href="#linear-gradient-7"/><linearGradient id="linear-gradient-24" x1="1096.90398" y1="1022.14033" x2="1096.90398" y2="1198.20874" xlink:href="#linear-gradient-8"/><linearGradient id="linear-gradient-25" x1="1269.71465" y1="1040.64222" x2="1111.42389" y2="1040.64222" xlink:href="#linear-gradient-7"/><linearGradient id="linear-gradient-26" x1="1096.90398" y1="934.33475" x2="1096.90398" y2="1110.4017" xlink:href="#linear-gradient-8"/><linearGradient id="linear-gradient-27" x1="1725.00181" y1="842.59277" x2="1014.12308" y2="842.59277" gradientUnits="userSpaceOnUse"><stop offset="0" stop-color="#ffe4a1"/><stop offset="1" stop-color="#ffca44"/></linearGradient><linearGradient id="linear-gradient-28" x1="2160.57533" y1="1659.0834" x2="2226.28172" y2="1508.89751" gradientUnits="userSpaceOnUse"><stop offset="0" stop-color="#fff"/><stop offset="0.12269" stop-color="#dadada"/><stop offset="0.4483" stop-color="#7e7e7e"/><stop offset="0.71279" stop-color="#3a3a3a"/><stop offset="0.90288" stop-color="#101010"/><stop offset="1"/></linearGradient><linearGradient id="linear-gradient-29" x1="2216.18288" y1="1515.16623" x2="2272.91924" y2="1412.12298" xlink:href="#linear-gradient-28"/><linearGradient id="linear-gradient-30" x1="2475.1392" y1="1450.84159" x2="2475.1392" y2="1640.52331" xlink:href="#linear-gradient-28"/><linearGradient id="linear-gradient-31" x1="2255.53215" y1="1373.80513" x2="2307.32578" y2="1255.41981" xlink:href="#linear-gradient-28"/><linearGradient id="linear-gradient-32" x1="2306.57641" y1="1282.19586" x2="2313.5659" y2="1266.2199" xlink:href="#linear-gradient-28"/><linearGradient id="linear-gradient-33" x1="2592.00582" y1="1050.76534" x2="2592.00582" y2="1331.15517" xlink:href="#linear-gradient-28"/><linearGradient id="linear-gradient-34" x1="2588.82002" y1="1101.34937" x2="2588.82002" y2="1246.01148" xlink:href="#linear-gradient-28"/><linearGradient id="linear-gradient-35" x1="1692.49898" y1="1558.28319" x2="1692.49898" y2="1710.97611" gradientUnits="userSpaceOnUse"><stop offset="0" stop-color="#6b9cff"/><stop offset="0.0077" stop-color="#6d9eff"/><stop offset="0.17305" stop-color="#9bf"/><stop offset="0.34012" stop-color="#bed4ff"/><stop offset="0.50658" stop-color="#dbe7ff"/><stop offset="0.67232" stop-color="#eff4ff"/><stop offset="0.83713" stop-color="#fbfcff"/><stop offset="1" stop-color="#fff"/></linearGradient><linearGradient id="linear-gradient-36" x1="1758.86001" y1="1867.60404" x2="1758.86001" y2="2098.01021" xlink:href="#linear-gradient-2"/><linearGradient id="linear-gradient-37" x1="1096.12362" y1="766.18223" x2="1096.12362" y2="1154.76368" xlink:href="#linear-gradient-28"/><linearGradient id="linear-gradient-38" x1="1084.9827" y1="815.91094" x2="1084.9827" y2="1046.65993" xlink:href="#linear-gradient-8"/><linearGradient id="linear-gradient-39" x1="984.23111" y1="963.56512" x2="1073.05582" y2="963.56512" xlink:href="#linear-gradient-8"/><linearGradient id="linear-gradient-40" x1="786.06841" y1="1790.00869" x2="786.06841" y2="1665.67845" xlink:href="#linear-gradient-8"/><linearGradient id="linear-gradient-41" x1="1017.75514" y1="1542.71665" x2="937.02935" y2="1477.63541" xlink:href="#linear-gradient-8"/><linearGradient id="linear-gradient-42" x1="758.22477" y1="983.20057" x2="758.22477" y2="1215.15307" xlink:href="#linear-gradient-8"/><linearGradient id="linear-gradient-43" x1="887.91874" y1="2138.83852" x2="757.75879" y2="1778.39526" xlink:href="#linear-gradient-8"/></defs><g class="cls-1"><g id="Layer_1" data-name="Layer 1"><path class="cls-2" d="M514.66644,799.94577v1399.8008a18.359,18.359,0,0,0,10.9086,16.77927L1696.29105,2736.35a18.359,18.359,0,0,0,14.9007,0l1170.71614-519.82419a18.359,18.359,0,0,0,10.90861-16.77929V799.94582a18.359,18.359,0,0,0-10.90862-16.7793L1711.19175,263.34233a18.35889,18.35889,0,0,0-14.9007,0L525.57507,783.16646A18.359,18.359,0,0,0,514.66644,799.94577Z" transform="translate(-62.6061 -261.76263)"/><path class="cls-3" d="M1422.12953,684.35982h763.96072c65.80666,0,41.56243-32.792-27.708-55.75133s-55.14982-122.32409-142.00465-145.91475c-70.13673-19.04928-91.78343,31.17183-164.51779,24.24508-72.73426-6.92675-109.96638-11.25706-140.27262,10.39061-33.83487,24.168-19.04939,86.58775-86.58786,91.78354-67.53943,5.19482-117.76054,25.1944-147.20043,50.22111C1448.35905,684.35982,1422.12953,684.35982,1422.12953,684.35982Z" transform="translate(-62.6061 -261.76263)"/><path class="cls-4" d="M616.62084,2411.98124s125.15473-80.25952,188.56529-181.00823c63.41152-100.7487,91.77968-139.54217,182.72473-151.85168,90.946-12.30855,189.4-64.28857,252.81145-145.09648,63.41152-80.80792,193.98178-224.318,344.79545-214.30617,150.81465,10.0128,294.32377,159.23816,379.42921,228.96925,85.10449,69.732,168.54065,51.37573,215.26417,123.13077,46.72448,71.75505,61.60538,156.19355,132.59421,186.56351,70.9898,30.36995,236.321,73.24313,265.45938,153.599Z" transform="translate(-62.6061 -261.76263)"/><path class="cls-5" d="M796.92646,1917.8968c-51.28417-41.02753-74.03537,63.25057-107.10586,63.25057-33.07137,0-36.49-34.18944-10.8484-52.99393,25.64256-18.80448,103.22178-37.609,134.52083-99.14978,31.29807-61.54081,2.23695-147.01442-37.08082-138.46658-39.31776,8.54688-70.08865,116.24354-107.69665,123.08162s-35.89921-30.77088-10.25664-58.12225c25.6416-27.35136,104.27817-71.79745,116.24353-140.17634,11.9664-68.3789-66.66913-124.79139-97.439-97.44-30.77089,27.35136-6.838,141.8861-52.99385,121.37282-46.15585-20.51424,1.70968-87.75394,25.64152-149.86435,23.93281-62.11041,3.41953-152.71234-83.76385-152.71234s-107.69666,90.60193-83.76385,152.71234,71.79745,129.35011,25.6416,149.86435c-46.15585,20.51328-22.223-94.02146-52.993-121.37282-30.77089-27.35137-109.40642,29.06112-97.44,97.44s90.60193,112.825,116.24354,140.17634c25.64263,27.35137,27.35232,64.96033-10.25665,58.12225-37.608-6.83808-68.37889-114.53474-107.69665-123.08162-39.31777-8.54784-68.37889,76.92577-37.08081,138.46658,31.3,61.54081,108.87826,80.3453,134.52089,99.14978,25.64154,18.80449,22.223,52.99393-10.84751,52.99393-33.07145,0-55.82169-104.2781-107.10585-63.25057-51.28417,41.02657-22.223,140.17635,105.98689,196.58884,84.04432,36.97865,124.79138,131.62946,124.79138,131.62946s40.74707-94.65081,124.79138-131.62946C819.1495,2058.07315,848.21063,1958.92337,796.92646,1917.8968Z" transform="translate(-62.6061 -261.76263)"/><line class="cls-6" x1="503.54112" y1="1121.06944" x2="503.54112" y2="2150.21861"/><path class="cls-6" d="M350.75391,1754.35725s0,103.70754,215.39331,175.506" transform="translate(-62.6061 -261.76263)"/><path class="cls-6" d="M350.75391,1966.33105s21.65344,72.93761,215.39331,151.57315" transform="translate(-62.6061 -261.76263)"/><path class="cls-6" d="M408.87616,1567.4545c4.55872,56.98305,35.32871,128.7805,157.27106,174.36675" transform="translate(-62.6061 -261.76263)"/><path class="cls-6" d="M781.54061,1754.35725s0,103.70754-215.39339,175.506" transform="translate(-62.6061 -261.76263)"/><path class="cls-6" d="M781.54061,1966.33105s-21.65352,72.93761-215.39339,151.57315" transform="translate(-62.6061 -261.76263)"/><path class="cls-6" d="M723.41828,1567.4545c-4.55775,56.98305-35.32864,128.7805-157.27106,174.36675" transform="translate(-62.6061 -261.76263)"/><path class="cls-7" d="M2796.3864,2127.304c-37.54619-30.03745-54.20252,46.30716-78.41482,46.30716-24.21134,0-26.71526-25.03152-7.94162-38.79828,18.77268-13.76676,75.56972-27.53352,98.48573-72.58872,22.91311-45.05617,1.63747-107.633-27.148-101.37517s-51.31308,85.10448-78.8466,90.1104c-27.53448,5.00688-26.28252-22.5276-7.50984-42.55224,18.77364-20.02464,76.34364-52.56408,85.10448-102.62617,8.76084-50.06112-48.81012-91.36236-71.33772-71.33772s-5.00592,103.87813-38.79732,88.8594,1.252-64.24616,18.77281-109.71868c17.52168-45.47253,2.50283-111.80337-61.325-111.80337-63.82885,0-78.84757,66.33084-61.32589,111.80337s52.56505,94.7,18.77377,109.71868c-33.79152,15.01873-16.27081-68.83476-38.79841-88.8594-22.52747-20.02464-80.09856,21.2766-71.33772,71.33772,8.76084,50.06209,66.33193,82.60153,85.10448,102.62617,18.77365,20.02464,20.02464,47.55912-7.50888,42.55224-27.53352-5.00592-50.06112-83.85252-78.8466-90.1104s-50.06208,56.319-27.14788,101.37517c22.91492,45.0552,79.712,58.822,98.4856,72.58872,18.77268,13.76676,16.26972,38.79828-7.94258,38.79828-24.21134,0-40.86754-76.34461-78.41386-46.30716-37.54632,30.03648-16.26972,102.62616,77.5956,143.92644,61.53021,27.0738,91.36237,96.36925,91.36237,96.36925s29.83119-69.29545,91.36236-96.36925C2812.65612,2229.93019,2833.93273,2157.34051,2796.3864,2127.304Z" transform="translate(-62.6061 -261.76263)"/><line class="cls-8" x1="2564.82233" y1="1473.80941" x2="2564.82233" y2="2150.21861"/><path class="cls-8" d="M2469.73427,2007.5735s0,75.92632,157.69417,128.49137" transform="translate(-62.6061 -261.76263)"/><path class="cls-8" d="M2469.73427,2162.76375s15.85252,53.39968,157.69417,110.97065" transform="translate(-62.6061 -261.76263)"/><path class="cls-8" d="M2512.28651,1870.73861c3.3376,41.7176,25.86533,94.28265,115.14193,127.65673" transform="translate(-62.6061 -261.76263)"/><path class="cls-9" d="M2785.12273,2007.5735s0,75.92632-157.69429,128.49137" transform="translate(-62.6061 -261.76263)"/><path class="cls-8" d="M2785.12273,2162.76375s-15.85349,53.39968-157.69429,110.97065" transform="translate(-62.6061 -261.76263)"/><path class="cls-8" d="M2742.57036,1870.73861c-3.3376,41.7176-25.8652,94.28265-115.14192,127.65673" transform="translate(-62.6061 -261.76263)"/><line class="cls-10" x1="1189.38" y1="1686.9253" x2="1189.38" y2="1593.32598"/><path class="cls-10" d="M1407.52813,2302.31074H1723.9776a31.12767,31.12767,0,0,0,31.12749-31.12749v-79.43066" transform="translate(-62.6061 -261.76263)"/><path class="cls-11" d="M2006.25111,672.33113v404.50329a7.19544,7.19544,0,0,0,4.2754,6.5763l458.83741,203.73488a7.19549,7.19549,0,0,0,5.8401,0l458.83756-203.73494a7.19544,7.19544,0,0,0,4.27539-6.5763V672.3312a7.19543,7.19543,0,0,0-4.27541-6.5763L2475.204,462.02108a7.19549,7.19549,0,0,0-5.8401,0L2010.52651,665.75485A7.1954,7.1954,0,0,0,2006.25111,672.33113Z" transform="translate(-62.6061 -261.76263)"/><polygon class="cls-12" points="2607.74 469.577 2511.759 422.597 2511.759 464.336 2607.74 511.316 2703.72 464.336 2703.72 422.597 2607.74 469.577"/><polygon class="cls-13" points="2607.74 511.79 2511.759 464.81 2511.759 506.55 2607.74 553.53 2703.72 506.55 2703.72 464.81 2607.74 511.79"/><polygon class="cls-14" points="2607.74 554.004 2511.759 507.024 2511.759 548.763 2607.74 595.743 2703.72 548.763 2703.72 507.024 2607.74 554.004"/><polygon class="cls-15" points="2607.74 596.217 2511.759 549.237 2511.759 590.976 2607.74 637.956 2703.72 590.976 2703.72 549.237 2607.74 596.217"/><polygon class="cls-16" points="2607.74 638.43 2511.759 591.45 2511.759 633.189 2607.74 680.169 2703.72 633.189 2703.72 591.45 2607.74 638.43"/><polygon class="cls-17" points="2607.74 680.643 2511.759 633.663 2511.759 675.403 2607.74 722.383 2703.72 675.403 2703.72 633.663 2607.74 680.643"/><polygon class="cls-18" points="2607.74 375.617 2511.759 422.597 2607.74 469.577 2703.72 422.597 2607.74 375.617"/><polygon class="cls-12" points="2211.616 469.577 2115.636 422.597 2115.636 464.336 2211.616 511.316 2307.597 464.336 2307.597 422.597 2211.616 469.577"/><polygon class="cls-13" points="2211.616 511.79 2115.636 464.81 2115.636 506.55 2211.616 553.53 2307.597 506.55 2307.597 464.81 2211.616 511.79"/><polygon class="cls-14" points="2211.616 554.004 2115.636 507.024 2115.636 548.763 2211.616 595.743 2307.597 548.763 2307.597 507.024 2211.616 554.004"/><polygon class="cls-15" points="2211.616 596.217 2115.636 549.237 2115.636 590.976 2211.616 637.956 2307.597 590.976 2307.597 549.237 2211.616 596.217"/><polygon class="cls-16" points="2211.616 638.43 2115.636 591.45 2115.636 633.189 2211.616 680.169 2307.597 633.189 2307.597 591.45 2211.616 638.43"/><polygon class="cls-17" points="2211.616 680.643 2115.636 633.663 2115.636 675.403 2211.616 722.383 2307.597 675.403 2307.597 633.663 2211.616 680.643"/><polygon class="cls-18" points="2211.616 375.617 2115.636 422.597 2211.616 469.577 2307.597 422.597 2211.616 375.617"/><g class="cls-19"><path class="cls-20" d="M2328.58932,993.82278v52.08894c0,38.09279,64.33484,68.97355,143.69417,68.97355,79.36139,0,143.69514-30.88076,143.69514-68.97355V993.82278Z" transform="translate(-62.6061 -261.76263)"/><path class="cls-18" d="M2472.28349,1011.72805c-60.5481,0-112.24766-18.00068-133.40379-43.44085-6.57389,7.904-10.29134,16.50488-10.29134,25.53462,0,38.09376,64.33483,68.97452,143.6961,68.97452,79.36042,0,143.69513-30.88076,143.69513-68.97452,0-9.02877-3.71733-17.62962-10.29037-25.53366C2584.53212,993.72833,2532.83256,1011.72805,2472.28349,1011.72805Z" transform="translate(-62.6061 -261.76263)"/></g><path class="cls-20" d="M2328.58932,787.50836v52.08893c0,38.09279,64.33484,68.97355,143.69417,68.97355,79.36139,0,143.69514-30.88076,143.69514-68.97355V787.50836Z" transform="translate(-62.6061 -261.76263)"/><g class="cls-21"><path class="cls-20" d="M2328.58932,890.66557V942.7545c0,38.0928,64.33484,68.97355,143.69417,68.97355,79.36139,0,143.69514-30.88075,143.69514-68.97355V890.66557Z" transform="translate(-62.6061 -261.76263)"/><path class="cls-18" d="M2472.28349,908.57084c-60.5481,0-112.24766-18.00068-133.40283-43.44085-6.574,7.904-10.2923,16.50584-10.2923,25.53558,0,38.09279,64.33483,68.97355,143.6961,68.97355,79.36042,0,143.69513-30.88076,143.69513-68.97355,0-9.02974-3.7183-17.63059-10.29134-25.53366C2584.53212,890.57112,2532.83256,908.57084,2472.28349,908.57084Z" transform="translate(-62.6061 -261.76263)"/></g><ellipse class="cls-18" cx="2409.67763" cy="525.74573" rx="143.69441" ry="68.97355"/><rect class="cls-22" x="939.64689" y="783.22" width="1153.59934" height="841.97366"/><rect class="cls-23" x="925.30475" y="766.99654" width="1153.59934" height="841.97366"/><rect class="cls-20" x="925.30475" y="766.99654" width="1153.59934" height="99.80997"/><line class="cls-10" x1="1459.75082" y1="1331.16192" x2="1238.76454" y2="1439.32794"/><line class="cls-10" x1="1456.35915" y1="1171.11899" x2="1246.9741" y2="1068.63065"/><line class="cls-10" x1="1528.2473" y1="1332.71265" x2="1741.71197" y2="1437.19797"/><line class="cls-10" x1="1528.46983" y1="1171.11899" x2="1743.62991" y2="1065.80385"/><polygon class="cls-24" points="1492.414 1304.327 1380.975 1249.781 1380.975 1310.585 1492.414 1365.131 1603.854 1310.585 1603.854 1249.781 1492.414 1304.327"/><polygon class="cls-25" points="1492.414 1195.234 1380.975 1249.781 1492.414 1304.327 1603.854 1249.781 1492.414 1195.234"/><polygon class="cls-26" points="1380.975 1249.781 1380.975 1310.584 1492.414 1365.131 1492.414 1304.327 1380.975 1249.781"/><polygon class="cls-27" points="1492.414 1216.52 1380.975 1161.974 1380.975 1222.778 1492.414 1277.325 1603.854 1222.778 1603.854 1161.974 1492.414 1216.52"/><polygon class="cls-25" points="1492.414 1107.427 1380.975 1161.974 1492.414 1216.52 1603.854 1161.974 1492.414 1107.427"/><polygon class="cls-28" points="1380.975 1161.974 1380.975 1222.778 1492.414 1277.325 1492.414 1216.52 1380.975 1161.974"/><polygon class="cls-29" points="1832.205 1480.017 1720.766 1425.471 1720.766 1486.275 1832.205 1540.821 1943.644 1486.275 1943.644 1425.471 1832.205 1480.017"/><polygon class="cls-25" points="1832.205 1370.924 1720.766 1425.471 1832.205 1480.017 1943.644 1425.471 1832.205 1370.924"/><polygon class="cls-30" points="1720.766 1425.471 1720.766 1486.274 1832.205 1540.821 1832.205 1480.017 1720.766 1425.471"/><polygon class="cls-31" points="1832.205 1392.21 1720.766 1337.664 1720.766 1398.468 1832.205 1453.015 1943.644 1398.468 1943.644 1337.664 1832.205 1392.21"/><polygon class="cls-25" points="1832.205 1283.117 1720.766 1337.664 1832.205 1392.21 1943.644 1337.664 1832.205 1283.117"/><polygon class="cls-32" points="1720.766 1337.664 1720.766 1398.468 1832.205 1453.015 1832.205 1392.21 1720.766 1337.664"/><polygon class="cls-33" points="1832.205 1125.32 1720.766 1070.773 1720.766 1131.578 1832.205 1186.124 1943.644 1131.578 1943.644 1070.773 1832.205 1125.32"/><polygon class="cls-25" points="1832.205 1016.228 1720.766 1070.773 1832.205 1125.32 1943.644 1070.773 1832.205 1016.228"/><polygon class="cls-34" points="1720.766 1070.773 1720.766 1131.578 1832.205 1186.124 1832.205 1125.32 1720.766 1070.773"/><polygon class="cls-35" points="1832.205 1037.514 1720.766 982.967 1720.766 1043.771 1832.205 1098.317 1943.644 1043.771 1943.644 982.967 1832.205 1037.514"/><polygon class="cls-25" points="1832.205 928.421 1720.766 982.967 1832.205 1037.514 1943.644 982.967 1832.205 928.421"/><polygon class="cls-36" points="1720.766 982.967 1720.766 1043.771 1832.205 1098.317 1832.205 1037.514 1720.766 982.967"/><polygon class="cls-37" points="1152.624 1480.017 1041.185 1425.471 1041.185 1486.275 1152.624 1540.821 1264.063 1486.275 1264.063 1425.471 1152.624 1480.017"/><polygon class="cls-25" points="1152.624 1370.924 1041.185 1425.471 1152.624 1480.017 1264.063 1425.471 1152.624 1370.924"/><polygon class="cls-38" points="1041.184 1425.471 1041.184 1486.274 1152.624 1540.821 1152.624 1480.017 1041.184 1425.471"/><polygon class="cls-39" points="1152.624 1392.21 1041.185 1337.664 1041.185 1398.468 1152.624 1453.015 1264.063 1398.468 1264.063 1337.664 1152.624 1392.21"/><polygon class="cls-25" points="1152.624 1283.117 1041.185 1337.664 1152.624 1392.21 1264.063 1337.664 1152.624 1283.117"/><polygon class="cls-40" points="1041.184 1337.664 1041.184 1398.468 1152.624 1453.015 1152.624 1392.21 1041.184 1337.664"/><polygon class="cls-41" points="1152.624 1125.32 1041.185 1070.773 1041.185 1131.578 1152.624 1186.124 1264.063 1131.578 1264.063 1070.773 1152.624 1125.32"/><polygon class="cls-25" points="1152.624 1016.228 1041.185 1070.773 1152.624 1125.32 1264.063 1070.773 1152.624 1016.228"/><polygon class="cls-42" points="1041.184 1070.773 1041.184 1131.578 1152.624 1186.124 1152.624 1125.32 1041.184 1070.773"/><polygon class="cls-43" points="1152.624 1037.514 1041.185 982.967 1041.185 1043.771 1152.624 1098.317 1264.063 1043.771 1264.063 982.967 1152.624 1037.514"/><polygon class="cls-25" points="1152.624 928.421 1041.185 982.967 1152.624 1037.514 1264.063 982.967 1152.624 928.421"/><polygon class="cls-44" points="1041.184 982.967 1041.184 1043.771 1152.624 1098.317 1152.624 1037.514 1041.184 982.967"/><path class="cls-45" d="M1896.52953,1078.66415a15.6447,15.6447,0,1,1-15.64422-15.64422A15.64446,15.64446,0,0,1,1896.52953,1078.66415Z" transform="translate(-62.6061 -261.76263)"/><circle class="cls-45" cx="1908.38961" cy="816.90152" r="15.64422"/><circle class="cls-45" cx="1998.50001" cy="816.90152" r="15.64422"/><path class="cls-46" d="M1758.83784,940.00289H1003.85192c-62.23377,0-39.30523-31.01184,26.20349-52.72407,65.50777-21.71224,52.15447-115.68069,134.2925-137.99047,66.3269-18.01418,86.79883,29.47941,155.58242,22.92853,68.78464-6.55087,103.99484-10.645,132.65493,9.82583,31.99779,22.85529,18.01514,81.88543,81.88543,86.79883,63.87135,4.91339,111.36484,23.82678,139.2058,47.49358C1701.51843,940.00289,1758.83784,940.00289,1758.83784,940.00289Z" transform="translate(-62.6061 -261.76263)"/><path class="cls-47" d="M751.16287,1028.75917c-34.17017,11.5327-43.51988,20.88241-55.05354,55.05355-11.53174-34.17114-20.88145-43.52085-55.05259-55.05355,34.17114-11.5327,43.52085-20.88242,55.05259-55.05355C707.643,1007.87675,716.9927,1017.22647,751.16287,1028.75917Z" transform="translate(-62.6061 -261.76263)"/><path class="cls-47" d="M1894.14512,865.131c-34.17113,11.53173-43.52085,20.88145-55.05355,55.05258-11.5327-34.17113-20.88241-43.52085-55.05258-55.05258,34.17017-11.53366,43.51988-20.88241,55.05258-55.05355C1850.62427,844.24854,1859.974,853.59729,1894.14512,865.131Z" transform="translate(-62.6061 -261.76263)"/><circle class="cls-47" cx="2755.59277" cy="1425.47058" r="55.05355"/><path class="cls-47" d="M831.141,929.1487c-17.08508,5.76635-21.75946,10.44072-27.52677,27.52581-5.76539-17.08509-10.44065-21.75946-27.52581-27.52581,17.08516-5.76635,21.76042-10.44169,27.52581-27.52678C809.3815,918.707,814.05588,923.38235,831.141,929.1487Z" transform="translate(-62.6061 -261.76263)"/><path class="cls-47" d="M1810.89882,747.21909c-17.08508,5.76539-21.76042,10.44073-27.52677,27.52581-5.76635-17.08508-10.44073-21.76042-27.52678-27.52581,17.086-5.76731,21.76043-10.44169,27.52678-27.52677C1789.1384,736.7774,1793.81374,741.45178,1810.89882,747.21909Z" transform="translate(-62.6061 -261.76263)"/><path class="cls-47" d="M2812.64854,1305.87352c-17.08521,5.76635-21.75959,10.44073-27.5269,27.52581-5.76538-17.08508-10.44072-21.75946-27.52581-27.52581,17.08509-5.76634,21.76043-10.44168,27.52581-27.52677C2790.889,1295.43184,2795.56333,1300.10718,2812.64854,1305.87352Z" transform="translate(-62.6061 -261.76263)"/><path class="cls-48" d="M2135.73518,2339.10916s8.71457,41.94988,4.73316,72.87208l-30.36031-2.35647-1.13245-12.883-14.49924,11.32644s-59.14483-1.08137-90.48724-28.89728c0,0,83.5818-3.62577,101.40986-37.395Z" transform="translate(-62.6061 -261.76263)"/><path class="cls-48" d="M2485.78425,2336.68716s16.73233,39.44306,18.86038,70.54742l-30.236,3.61324-3.62481-12.4136-12.01074,13.93735s-58.21766,10.48024-94.38577-10.68456c0,0,81.26764-19.86562,92.16327-56.46454Z" transform="translate(-62.6061 -261.76263)"/><path class="cls-49" d="M2254.46914,1681.756s-85.10448,183.97573-158.94516,667.07008h45.05531s75.09253-140.17249,72.58957-279.093l112.638-272.37251s3.75493,177.25523,18.77365,268.61759,106.70781,282.84794,106.70781,282.84794h43.47651s-21.27564-221.52205-78.8466-291.60878c0,0,41.43232-250.66124,17.52168-375.4613Z" transform="translate(-62.6061 -261.76263)"/><path class="cls-50" d="M2403.33705,1737.78779l-13.76784,335.98837s45.68166,62.28871,91.36248,275.04992" transform="translate(-62.6061 -261.76263)"/><path class="cls-51" d="M2187.721,1518.63859l-16.27068,59.23928s-89.69308,143.51009-97.61928,169.79262c-7.92716,26.28155-7.92716,48.3928-2.50392,58.40464l21.69392,7.50984,10.01184-7.92716s-5.42324-13.76676,0-33.7914c0,0,10.84648,6.25788,11.68112,18.77364,0,0,5.84056,2.08564,7.09252-4.17224,1.25111-6.25788-2.19069-35.877-11.89026-46.82858,0,0,84.15333-98.1831,103.87812-129.84742,23.77956-38.17182,30.38055-74.67628,30.38055-74.67628Z" transform="translate(-62.6061 -261.76263)"/><path class="cls-52" d="M2187.721,1518.63859l-7.505,27.32438,24.97466,76.39569c3.49566-4.82666,6.45064-9.1107,8.60374-12.56685,23.7786-38.17182,30.38055-74.67725,30.38055-74.67725Z" transform="translate(-62.6061 -261.76263)"/><path class="cls-18" d="M2243.20534,1379.50892c-15.01764,9.80366-67.16548,140.38067-67.16548,140.38067s22.31857,27.95084,71.33772,32.5404c0,0,7.9262-33.7914,12.93212-67.5828C2269.22186,1424.68942,2243.20534,1379.50892,2243.20534,1379.50892Z" transform="translate(-62.6061 -261.76263)"/><path class="cls-53" d="M2243.73253,1551.9693c.77585.09445,1.52279.21107,2.3131.293,4.05562-6.121,10.07641-42.16576,15.73578-82.322,3.13906-52.5371-18.57607-90.43135-18.57607-90.43135-6.96241,4.54427-21.90114,35.04433-35.92715,66.4571C2219.74961,1483.32055,2238.42206,1538.76925,2243.73253,1551.9693Z" transform="translate(-62.6061 -261.76263)"/><path class="cls-49" d="M2214.00254,1179.888c14.40961-16.07118,37.54632.41732,73.84165,0,36.29436-.41732,54.23336-2.08564,65.07984,14.18408,10.84648,16.27068,1.66832,34.626,10.84648,45.0552,9.17828,10.43012,22.11028,9.17816,22.5276,24.6142.41732,15.43508-15.01872,19.60733-16.687,31.70577s8.34352,25.44788-35.46069,33.7914c-43.80323,8.34352-66.33083,28.78548-87.60744,16.26972-21.27552-12.5148-19.19-28.78548-23.77956-44.63788-4.5886-15.85337-21.27564-19.19-21.693-36.29436s12.51588-29.62013,13.34944-42.55321C2215.2545,1209.09081,2203.15606,1191.98645,2214.00254,1179.888Z" transform="translate(-62.6061 -261.76263)"/><path class="cls-18" d="M2349.58655,1343.84006a692.23131,692.23131,0,0,1,73.21506,20.99228s14.39226,80.38192,17.52168,147.96569c3.12846,67.5828,11.2638,182.72473,11.2638,182.72473s-60.69942,6.88338-88.8594,15.64422-88.23391,21.9021-125.15377-3.12942c0,0,8.13438-70.71126,6.88338-130.78519-1.252-60.07392-7.50984-159.57163-1.252-197.74345C2243.20534,1379.50892,2273.86828,1353.8519,2349.58655,1343.84006Z" transform="translate(-62.6061 -261.76263)"/><path class="cls-54" d="M2410.10658,1512.82984l49.40189,71.99888v150.74236l-18.366,64.98732c3.3676.23035,6.7205.51274,10.14581.51274a146.94287,146.94287,0,0,0,41.81879-6.1191l-4.6657-46.66184,51.7304-191.05283-28.00192-37.05672a145.72327,145.72327,0,0,0-102.06331-7.35081Z" transform="translate(-62.6061 -261.76263)"/><path class="cls-55" d="M2558.06861,1843.8288c-2.37675,1.60676-4.49095.13076-6.67133-.56818-2.5097-.49818-4.62794-1.94328-6.89216-2.99288-2.6035-1.20684-5.20988-2.46008-7.85061-3.537-7.53711-3.07371-14.93763-6.46127-22.47441-9.53878-10.30605-4.20832-20.53621-8.60195-30.9516-12.5418a3.86319,3.86319,0,0,1-1.67436-1.00291c-.37128-1.27572.77422-1.48121,1.45469-1.88452a13.60071,13.60071,0,0,0,6.91037-11.6959,14.09841,14.09841,0,0,0-2.54272-8.2948,3.068,3.068,0,0,1-.7804-2.31138c.85288-2.09792,1.05523-4.49241,2.824-6.16825,2.0782.78117,4.14995,1.58,6.23573,2.34037,7.66127,2.79288,15.31193,5.616,22.996,8.345,6.77427,2.40587,13.56327,4.77559,20.39039,7.02588,7.90108,2.60427,15.84916,5.06622,23.78159,7.57494,1.19641.37838,2.40968.71322,3.631,1.001,1.95167.4599,3.17836,1.54077,3.32293,3.633Z" transform="translate(-62.6061 -261.76263)"/><path class="cls-55" d="M2391.15942,1781.97931c-.94651-.37393-1.89484-.74334-2.83915-1.12274a3.12627,3.12627,0,0,1-1.98978-4.19q5.37039-14.228,10.86686-28.40819a2.86215,2.86215,0,0,1,4.22232-1.77909c3.995,1.762,7.93009,3.6597,11.89018,5.50084,2.33211,1.08426,4.62127,2.276,7.00527,3.23084,8.62237,3.45336,17.08616,7.27979,25.68759,10.78738,10.43249,4.25428,20.819,8.62032,31.3334,12.67251.1988,2.41787-1.24573,4.32761-1.98939,6.45225-.49779.88814-1.4025,1.01932-2.27674,1.25323a13.92776,13.92776,0,0,0-10.65011,12.57414,14.64074,14.64074,0,0,0,.72778,5.30822c.19687.72461.85928,1.56988-.15058,2.25346a4.02873,4.02873,0,0,1-2.09605-.39809c-1.35062-.49546-2.70237-.99113-4.03175-1.53962-7.70419-3.17865-15.66714-5.64766-23.48832-8.50461-8.993-3.285-18.12119-6.21205-27.2021-9.25818-4.1926-1.40637-8.41558-2.776-12.7169-3.8552A6.34289,6.34289,0,0,1,2391.15942,1781.97931Z" transform="translate(-62.6061 -261.76263)"/><path class="cls-56" d="M2391.15942,1781.97931c1.533-.23693,2.86139.60067,4.29373.88226a34.14074,34.14074,0,0,1,4.77294,1.46078c3.26494,1.16227,6.60794,2.0682,9.87033,3.24361,6.85117,2.46841,13.79774,4.66907,20.67388,7.07731,3.32132,1.16323,6.60245,2.46472,9.9604,3.5261,7.25048,2.29177,14.30263,5.12029,21.40636,7.81037a1.40283,1.40283,0,0,0,1.20409.1315,4.912,4.912,0,0,1,2.41468,4.04727c-.84221,2.14736-1.10337,4.55775-2.85738,6.29106a10.883,10.883,0,0,1-6.41337-2.53928c-10.10631-3.60529-20.191-7.27265-30.32641-10.79433-6.90187-2.39816-13.85572-4.652-20.82235-6.85657-4.50663-1.42608-9.066-2.69155-13.62564-3.94172-2.57977-.70731-3.56858-2.32526-2.66939-4.78988C2389.71973,1785.66823,2390.45143,1783.82809,2391.15942,1781.97931Z" transform="translate(-62.6061 -261.76263)"/><path class="cls-56" d="M2481.53267,1813.06886c.24985.57919.83613.63688,1.32248.82893,1.44884.57211,2.914,1.10294,4.36125,1.679,7.94748,3.16326,15.95076,6.19614,23.81761,9.549,6.09505,2.59769,12.23113,5.1023,18.29364,7.76906,4.5302,1.99275,9.08576,3.92766,13.60725,5.93918,2.66282,1.1846,5.26462,2.50714,7.88156,3.7927.23941.11762.38908.418.58063.6337-.72823,1.9055-1.427,3.82275-2.193,5.71277-.845,2.085-2.70512,2.89878-4.64839,1.88474-10.26105-5.3543-20.92532-9.812-31.572-14.31147-5.46334-2.30888-10.91-4.65776-16.38731-6.93292-5.03767-2.09254-10.10632-4.11049-15.16132-6.16132a11.10294,11.10294,0,0,1-6.44031-2.34879c-.40568-1.81973.79713-3.23064,1.24753-4.83272a7.55469,7.55469,0,0,1,.76343-1.76938A4.97711,4.97711,0,0,1,2481.53267,1813.06886Z" transform="translate(-62.6061 -261.76263)"/><path class="cls-57" d="M2456.48507,1813.9103q3.22,1.19937,6.43995,2.39877c.20253,1.442.969,2.8493.268,4.34705-2.00585,2.13826-4.02322,4.26584-6.01484,6.41728a38.42243,38.42243,0,0,0-7.41242,10.74493c-.38754.89714-.80288.97761-1.63036.64006-2.11164-.86136-4.23665-1.69851-6.39338-2.43712-1.07322-.36756-1.17507-.82192-.76858-1.832,2.14369-5.32693,5.61509-9.73192,9.46938-13.87943C2452.43988,1818.16083,2454.46993,1816.04248,2456.48507,1813.9103Z" transform="translate(-62.6061 -261.76263)"/><path class="cls-57" d="M2475.03782,1820.94153q3.19882,1.25482,6.39741,2.51013c-.06067,4.55179.39861,9.09383.17908,13.6509a41.87354,41.87354,0,0,1-2.15911,11.80388c-.35757,1.03155-.75024,1.29391-1.79437.85176-2.0992-.889-4.2539-1.64641-6.38086-2.47062-.53233-.20627-1.20872-.27978-.89332-1.1987,2.15314-6.27311,1.81929-12.75225,1.5596-19.225-.03824-.95307-.00759-1.90891-.00881-2.86347C2472.4148,1822.41714,2473.92468,1821.8804,2475.03782,1820.94153Z" transform="translate(-62.6061 -261.76263)"/><path class="cls-58" d="M2474.85166,1785.40514q1.2423-3.36729,2.48453-6.73443c1.76909-2.65519,2.57525-2.92135,5.50382-1.80994q1.846.70056,3.68833,1.41059c2.92306,1.12651,3.34574,1.86234,2.89175,5.02087q-1.32167,3.33693-2.64327,6.6735c-.84215.268-1.35347-.33132-1.89982-.76433a14.10082,14.10082,0,0,0-8.10021-3.09793C2476.08092,1786.0614,2475.30019,1786.16653,2474.85166,1785.40514Z" transform="translate(-62.6061 -261.76263)"/><path class="cls-58" d="M2475.03782,1820.94153c-.58976,1.46937-2.094,2.01186-3.10038,3.0589-.87639-1.11361-2.27684-1.16421-3.455-1.58622-1.74528-.62514-3.33147-1.77291-5.28942-1.75807-.05089-1.4514-.8094-2.85916-.268-4.34707l2.6358-6.69505c.687-.20954,1.13128.25451,1.577.61763a14.69624,14.69624,0,0,0,8.8176,3.37228c.5743.027,1.2148-.02215,1.5868.59217Q2476.29,1817.56882,2475.03782,1820.94153Z" transform="translate(-62.6061 -261.76263)"/><path class="cls-59" d="M2477.54224,1814.1961a16.64662,16.64662,0,0,1-11.982-4.5823q-1.10876-1.75142-2.21887-3.50291c-2.48882-5.72131-1.76813-11.02158,2.22215-15.802a14.03868,14.03868,0,0,1,7.75841-4.47116,3.67312,3.67312,0,0,0,1.52921-.43306,20.56016,20.56016,0,0,1,8.17727,1.91013c1.38651.73327,2.35188,1.98358,3.74907,2.65091,1.69526,2.59717,3.25487,5.20892,3.56862,8.43791a14.3856,14.3856,0,0,1-6.61468,13.49073c-.71161.42669-1.46472.78417-2.19871,1.17407Q2479.53741,1813.63271,2477.54224,1814.1961Z" transform="translate(-62.6061 -261.76263)"/><path class="cls-60" d="M2483.53683,1802.75044a7.92532,7.92532,0,1,1-4.49206-10.35328A7.9607,7.9607,0,0,1,2483.53683,1802.75044Z" transform="translate(-62.6061 -261.76263)"/><path class="cls-51" d="M2470.98623,1521.55887l28.78452,43.80324-28.78452,173.33839s-22.52856,53.19055-19.39914,63.20335c3.12846,10.01184,16.89522-19.39914,16.89522-19.39914l-2.23695,33.11867a8.04173,8.04173,0,0,0,11.23006,7.91753l23.0519-10.02244a15.08176,15.08176,0,0,0,9.06347-12.58227c1.07174-12.79526,1.55942-36.82058-6.69062-57.22978,0,0,54.802-132.96238,55.69363-173.33743.85668-38.79828-54.78863-96.36924-54.78863-96.36924Z" transform="translate(-62.6061 -261.76263)"/><path class="cls-18" d="M2422.80161,1364.83234c26.60732,2.13672,99.4977,117.30275,99.4977,117.30275s-11.2638,38.17182-56.10395,53.84977c0,0-33.1747-47.4319-55.28293-77.42019C2386.3069,1425.18962,2395.89359,1362.67249,2422.80161,1364.83234Z" transform="translate(-62.6061 -261.76263)"/><path class="cls-51" d="M2349.58655,1343.84006s-18.7728-32.95772-25.448-47.55913c11.68112-5.00592,13.76687-29.20183,0-33.7914-13.76676-4.5886-14.6014,15.01872-14.6014,15.01872a88.56177,88.56177,0,0,1-5.42324-16.26972c-31.28845-11.2638-57.15365-42.55224-57.15365-42.55224s-6.571,22.5276-3.44169,43.80324c-5.31915,5.63239-10.95153,11.577-10.95153,11.577l12.829,2.18973s0,23.4673.31227,34.41787c.31323,10.95057,22.5276,4.06719,28.16,9.07407,5.63239,5.00592,17.20845,42.239,17.20845,42.239S2305.78234,1375.44173,2349.58655,1343.84006Z" transform="translate(-62.6061 -261.76263)"/><line class="cls-61" x1="2338.59218" y1="1177.48289" x2="2372.37973" y2="1230.08359"/><line class="cls-61" x1="2181.87433" y1="1281.06321" x2="2177.91316" y2="1180.94386"/><g class="cls-62"><path class="cls-63" d="M2306.457,1269.53483v.001s-27.33991,44.0519-53.30246,47.47046c7.08674,1.13631,17.17183-.40672,20.71375,2.741,2.75258,2.44706,6.921,12.59093,10.46868,22.3252,3.67589.32962,6.96723.107,9.34682-1.04185,15.36954-7.41732,15.85337-63.52237,15.85337-63.52237A83.469,83.469,0,0,1,2306.457,1269.53483Z" transform="translate(-62.6061 -261.76263)"/><path class="cls-64" d="M2309.53715,1277.50825l2.57235-9.96943A28.84263,28.84263,0,0,0,2309.53715,1277.50825Z" transform="translate(-62.6061 -261.76263)"/></g><path class="cls-65" d="M2695.03244,1106.49452H2488.98017a31.30556,31.30556,0,0,0-31.30579,31.30579v133.53006a31.30556,31.30556,0,0,0,31.30579,31.30579H2525.155a61.19916,61.19916,0,0,1-38.296,53.23391,61.05206,61.05206,0,0,0,83.89674-53.23391h124.27671a31.306,31.306,0,0,0,31.30483-31.30579V1137.80031A31.306,31.306,0,0,0,2695.03244,1106.49452Z" transform="translate(-62.6061 -261.76263)"/><path class="cls-47" d="M2684.14741,1095.6172H2478.09514a31.30556,31.30556,0,0,0-31.30579,31.30579v133.531a31.30474,31.30474,0,0,0,31.30579,31.30483H2514.27a61.1936,61.1936,0,0,1-38.29615,53.23391,61.05215,61.05215,0,0,0,83.89685-53.23391h124.27672a31.30527,31.30527,0,0,0,31.30579-31.30483V1126.923A31.30609,31.30609,0,0,0,2684.14741,1095.6172Z" transform="translate(-62.6061 -261.76263)"/><path class="cls-66" d="M2625.4305,1180.25136v-22.35991a36.60759,36.60759,0,0,0-73.21518,0v22.35991h-7.69971v84.02022h88.60882v-84.02022Zm-63.20322-22.35991a26.59521,26.59521,0,1,1,53.19042,0v22.35991h-53.19042Z" transform="translate(-62.6061 -261.76263)"/><path class="cls-67" d="M2617.73079,1193.34154h-73.21518V1150.477a36.60759,36.60759,0,1,1,73.21518,0Zm-63.20238-10.01184H2607.719V1150.477a26.59528,26.59528,0,1,0-53.19055,0Z" transform="translate(-62.6061 -261.76263)"/><rect class="cls-2" x="2474.21076" y="911.0743" width="88.60882" height="84.02119"/><path class="cls-68" d="M2592.00631,1203.66275a10.88506,10.88506,0,1,0-18.43247,7.798l-3.33747,21.957h21.76994l-3.3376-21.957A10.81134,10.81134,0,0,0,2592.00631,1203.66275Z" transform="translate(-62.6061 -261.76263)"/><line class="cls-50" x1="2470.79991" y1="986.04165" x2="2566.23043" y2="986.04165"/><line class="cls-50" x1="2470.79991" y1="920.12813" x2="2566.23043" y2="920.12813"/><path class="cls-47" d="M1024.13351,1704.30145h330.493a1.2086,1.2086,0,0,1,1.2086,1.2086v99.37442a1.2085,1.2085,0,0,1-1.2085,1.2085h-330.4931a1.20851,1.20851,0,0,1-1.20851-1.20851V1705.51A1.20851,1.20851,0,0,1,1024.13351,1704.30145Z"/><path class="cls-69" d="M1389.65563,1997.76984H1286.19974a4.58879,4.58879,0,0,1-4.58869-4.58956h0a4.58859,4.58859,0,0,1,4.58869-4.5886h103.45589a4.58851,4.58851,0,0,1,4.5886,4.5886h0A4.58871,4.58871,0,0,1,1389.65563,1997.76984Z" transform="translate(-62.6061 -261.76263)"/><circle class="cls-70" cx="1052.1278" cy="1731.83497" r="5.00592"/><path class="cls-70" d="M1150.19362,1993.5976a5.00592,5.00592,0,1,1-5.00583-5.00592A5.00537,5.00537,0,0,1,1150.19362,1993.5976Z" transform="translate(-62.6061 -261.76263)"/><path class="cls-70" d="M1180.64742,1993.5976a5.0064,5.0064,0,1,1-5.00592-5.00592A5.006,5.006,0,0,1,1180.64742,1993.5976Z" transform="translate(-62.6061 -261.76263)"/><path class="cls-70" d="M1211.10131,1993.5976a5.00645,5.00645,0,1,1-5.006-5.00592A5.00608,5.00608,0,0,1,1211.10131,1993.5976Z" transform="translate(-62.6061 -261.76263)"/><circle class="cls-70" cx="1052.1278" cy="1755.19721" r="5.00592"/><path class="cls-70" d="M1150.19362,2016.95984a5.00592,5.00592,0,1,1-5.00583-5.00592A5.00537,5.00537,0,0,1,1150.19362,2016.95984Z" transform="translate(-62.6061 -261.76263)"/><path class="cls-70" d="M1180.64742,2016.95984a5.0064,5.0064,0,1,1-5.00592-5.00592A5.006,5.006,0,0,1,1180.64742,2016.95984Z" transform="translate(-62.6061 -261.76263)"/><path class="cls-70" d="M1211.10131,2016.95984a5.00645,5.00645,0,1,1-5.006-5.00592A5.00608,5.00608,0,0,1,1211.10131,2016.95984Z" transform="translate(-62.6061 -261.76263)"/><path class="cls-70" d="M1119.73982,2040.32208a5.00592,5.00592,0,1,1-5.00592-5.00688A5.006,5.006,0,0,1,1119.73982,2040.32208Z" transform="translate(-62.6061 -261.76263)"/><path class="cls-70" d="M1150.19362,2040.32208a5.00592,5.00592,0,1,1-5.00583-5.00688A5.006,5.006,0,0,1,1150.19362,2040.32208Z" transform="translate(-62.6061 -261.76263)"/><path class="cls-70" d="M1180.64742,2040.32208a5.0064,5.0064,0,1,1-5.00592-5.00688A5.00662,5.00662,0,0,1,1180.64742,2040.32208Z" transform="translate(-62.6061 -261.76263)"/><path class="cls-70" d="M1211.10131,2040.32208a5.00645,5.00645,0,1,1-5.006-5.00688A5.00669,5.00669,0,0,1,1211.10131,2040.32208Z" transform="translate(-62.6061 -261.76263)"/><path class="cls-71" d="M1085.5311,2055.96052v.24673a11.648,11.648,0,0,0,11.64739,11.64835h309.61427a11.64833,11.64833,0,0,0,11.64845-11.64835v-.24673Z" transform="translate(-62.6061 -261.76263)"/><path class="cls-47" d="M1024.1335,1846.9769h330.493a1.2086,1.2086,0,0,1,1.2086,1.2086v99.37442a1.2085,1.2085,0,0,1-1.2085,1.2085h-330.4931a1.20851,1.20851,0,0,1-1.20851-1.20851V1848.1854A1.2085,1.2085,0,0,1,1024.1335,1846.9769Z"/><path class="cls-69" d="M1389.65563,2140.44529H1286.19974a4.58879,4.58879,0,0,1-4.58869-4.58956h0a4.58859,4.58859,0,0,1,4.58869-4.5886h103.45589a4.58851,4.58851,0,0,1,4.5886,4.5886h0A4.58871,4.58871,0,0,1,1389.65563,2140.44529Z" transform="translate(-62.6061 -261.76263)"/><circle class="cls-70" cx="1052.1278" cy="1874.51042" r="5.00592"/><path class="cls-70" d="M1150.19362,2136.273a5.00592,5.00592,0,1,1-5.00583-5.00592A5.00537,5.00537,0,0,1,1150.19362,2136.273Z" transform="translate(-62.6061 -261.76263)"/><path class="cls-70" d="M1180.64742,2136.273a5.0064,5.0064,0,1,1-5.00592-5.00592A5.006,5.006,0,0,1,1180.64742,2136.273Z" transform="translate(-62.6061 -261.76263)"/><path class="cls-70" d="M1211.10131,2136.273a5.00645,5.00645,0,1,1-5.006-5.00592A5.00608,5.00608,0,0,1,1211.10131,2136.273Z" transform="translate(-62.6061 -261.76263)"/><circle class="cls-70" cx="1052.1278" cy="1897.87266" r="5.00592"/><path class="cls-70" d="M1150.19362,2159.63529a5.00592,5.00592,0,1,1-5.00583-5.00592A5.00537,5.00537,0,0,1,1150.19362,2159.63529Z" transform="translate(-62.6061 -261.76263)"/><path class="cls-70" d="M1180.64742,2159.63529a5.0064,5.0064,0,1,1-5.00592-5.00592A5.006,5.006,0,0,1,1180.64742,2159.63529Z" transform="translate(-62.6061 -261.76263)"/><path class="cls-70" d="M1211.10131,2159.63529a5.00645,5.00645,0,1,1-5.006-5.00592A5.00608,5.00608,0,0,1,1211.10131,2159.63529Z" transform="translate(-62.6061 -261.76263)"/><circle class="cls-70" cx="1052.1278" cy="1921.2349" r="5.00592"/><path class="cls-70" d="M1150.19362,2182.99753a5.00592,5.00592,0,1,1-5.00583-5.00592A5.006,5.006,0,0,1,1150.19362,2182.99753Z" transform="translate(-62.6061 -261.76263)"/><path class="cls-70" d="M1180.64742,2182.99753a5.0064,5.0064,0,1,1-5.00592-5.00592A5.00662,5.00662,0,0,1,1180.64742,2182.99753Z" transform="translate(-62.6061 -261.76263)"/><path class="cls-70" d="M1211.10131,2182.99753a5.00645,5.00645,0,1,1-5.006-5.00592A5.00669,5.00669,0,0,1,1211.10131,2182.99753Z" transform="translate(-62.6061 -261.76263)"/><path class="cls-71" d="M1085.5311,2198.636v.24769a11.64783,11.64783,0,0,0,11.64739,11.64739h309.61427a11.64812,11.64812,0,0,0,11.64845-11.64739v-.24769Z" transform="translate(-62.6061 -261.76263)"/><path class="cls-47" d="M1024.13351,1989.65235h330.493a1.2086,1.2086,0,0,1,1.2086,1.2086v99.37442a1.2085,1.2085,0,0,1-1.2085,1.2085h-330.4931a1.20851,1.20851,0,0,1-1.20851-1.20851v-99.37451A1.20851,1.20851,0,0,1,1024.13351,1989.65235Z"/><path class="cls-69" d="M1389.65563,2283.12074H1286.19974a4.58879,4.58879,0,0,1-4.58869-4.58956h0a4.58858,4.58858,0,0,1,4.58869-4.5886h103.45589a4.5885,4.5885,0,0,1,4.5886,4.5886h0A4.58871,4.58871,0,0,1,1389.65563,2283.12074Z" transform="translate(-62.6061 -261.76263)"/><circle class="cls-70" cx="1052.1278" cy="2017.18587" r="5.00592"/><path class="cls-70" d="M1150.19362,2278.9485a5.00592,5.00592,0,1,1-5.00583-5.00592A5.00537,5.00537,0,0,1,1150.19362,2278.9485Z" transform="translate(-62.6061 -261.76263)"/><path class="cls-70" d="M1180.64742,2278.9485a5.0064,5.0064,0,1,1-5.00592-5.00592A5.006,5.006,0,0,1,1180.64742,2278.9485Z" transform="translate(-62.6061 -261.76263)"/><path class="cls-70" d="M1211.10131,2278.9485a5.00645,5.00645,0,1,1-5.006-5.00592A5.00608,5.00608,0,0,1,1211.10131,2278.9485Z" transform="translate(-62.6061 -261.76263)"/><circle class="cls-70" cx="1052.1278" cy="2040.54811" r="5.00592"/><path class="cls-70" d="M1150.19362,2302.31074a5.00592,5.00592,0,1,1-5.00583-5.00592A5.00537,5.00537,0,0,1,1150.19362,2302.31074Z" transform="translate(-62.6061 -261.76263)"/><path class="cls-70" d="M1180.64742,2302.31074a5.0064,5.0064,0,1,1-5.00592-5.00592A5.006,5.006,0,0,1,1180.64742,2302.31074Z" transform="translate(-62.6061 -261.76263)"/><path class="cls-70" d="M1211.10131,2302.31074a5.00645,5.00645,0,1,1-5.006-5.00592A5.00608,5.00608,0,0,1,1211.10131,2302.31074Z" transform="translate(-62.6061 -261.76263)"/><circle class="cls-70" cx="1052.1278" cy="2063.91035" r="5.00592"/><path class="cls-70" d="M1150.19362,2325.673a5.00592,5.00592,0,1,1-5.00583-5.00592A5.00537,5.00537,0,0,1,1150.19362,2325.673Z" transform="translate(-62.6061 -261.76263)"/><path class="cls-70" d="M1180.64742,2325.673a5.0064,5.0064,0,1,1-5.00592-5.00592A5.006,5.006,0,0,1,1180.64742,2325.673Z" transform="translate(-62.6061 -261.76263)"/><path class="cls-70" d="M1211.10131,2325.673a5.00645,5.00645,0,1,1-5.006-5.00592A5.00608,5.00608,0,0,1,1211.10131,2325.673Z" transform="translate(-62.6061 -261.76263)"/><path class="cls-71" d="M1085.5311,2341.31142v.24769a11.64783,11.64783,0,0,0,11.64739,11.64739h309.61427a11.64812,11.64812,0,0,0,11.64845-11.64739v-.24769Z" transform="translate(-62.6061 -261.76263)"/><line class="cls-10" x1="1189.38" y1="1817.3587" x2="1189.38" y2="1835.71117"/><line class="cls-10" x1="1189.38" y1="1960.03415" x2="1189.38" y2="1978.38662"/><rect class="cls-22" x="1438.01921" y="1559.95672" width="530.6525" height="390.48099"/><rect class="cls-72" x="1427.17273" y="1549.94488" width="530.6525" height="390.48002"/><rect class="cls-20" x="1427.17273" y="1549.94488" width="530.6525" height="56.4867"/><path class="cls-73" d="M1552.773,2095.80644s15.8524-21.693,28.36816-61.74224c12.5148-40.04928,25.03056-58.4056,59.23928-45.88984s51.7304,6.6752,78.43024-32.5404c26.69888-39.21465,48.39281-70.08577,79.26393-65.07985s40.88392,76.761,72.58968,85.93913c31.70491,9.17816,30.03648-15.8524,55.90168,3.3376s19.19,104.29448,38.381,115.9756Z" transform="translate(-62.6061 -261.76263)"/><line class="cls-74" x1="1490.16694" y1="1866.1669" x2="1707.5177" y2="1866.1669"/><line class="cls-74" x1="1490.16694" y1="1890.57196" x2="1639.93394" y2="1890.57196"/><line class="cls-74" x1="1490.16694" y1="1914.97702" x2="1637.43098" y2="1914.97702"/><path class="cls-75" d="M1895.68911,1839.95038a7.467,7.467,0,1,1-7.46647-7.46744A7.46674,7.46674,0,0,1,1895.68911,1839.95038Z" transform="translate(-62.6061 -261.76263)"/><path class="cls-75" d="M1944.16672,1839.95038a7.46744,7.46744,0,1,1-7.46732-7.46744A7.46753,7.46753,0,0,1,1944.16672,1839.95038Z" transform="translate(-62.6061 -261.76263)"/><circle class="cls-75" cx="1922.56986" cy="1578.18775" r="7.46739"/><line class="cls-76" x1="1466.80469" y1="1834.04381" x2="1929.03975" y2="1834.04381"/><path class="cls-77" d="M1247.23848,842.59275H945.00884A45.91719,45.91719,0,0,0,899.091,888.51054v195.85732a45.91719,45.91719,0,0,0,45.91787,45.91779h53.06035c-2.10483,35.51658-47.163,52.16122-78.70011,64.79842,13.82556,15.87842,44.08178,19.84152,55.90072,19.84152a89.8802,89.8802,0,0,0,89.68441-84.63994h182.28427a45.91841,45.91841,0,0,0,45.91779-45.91779V888.51054A45.91841,45.91841,0,0,0,1247.23848,842.59275Z" transform="translate(-62.6061 -261.76263)"/><path class="cls-47" d="M1224.71088,829.30981H922.48116a45.91718,45.91718,0,0,0-45.91779,45.91779v195.85732a45.91718,45.91718,0,0,0,45.91779,45.91779h53.06051a89.76227,89.76227,0,0,1-56.17259,78.08136,89.55138,89.55138,0,0,0,123.05753-78.08136h182.28427a45.91841,45.91841,0,0,0,45.91779-45.91779V875.2276A45.91841,45.91841,0,0,0,1224.71088,829.30981Z" transform="translate(-62.6061 -261.76263)"/><path class="cls-78" d="M1084.9827,867.63969C1055.92833,925.74941,996.158,927.41,996.158,927.41c0,141.12375,88.8247,148.59408,88.8247,148.59408s88.82471-7.47033,88.82471-148.59408C1173.80741,927.41,1114.03708,925.74941,1084.9827,867.63969Z" transform="translate(-62.6061 -261.76263)"/><path class="cls-79" d="M1073.05582,859.38291c-29.05535,58.10972-88.82471,59.76937-88.82471,59.76937,0,141.12375,88.82471,148.595,88.82471,148.595s88.82479-7.47129,88.82479-148.595C1161.88061,919.15228,1102.1102,917.49263,1073.05582,859.38291Z" transform="translate(-62.6061 -261.76263)"/><path class="cls-80" d="M1073.05582,859.38291v208.36441s-88.82471-7.47033-88.82471-148.595C984.23111,919.15228,1044.00047,917.49263,1073.05582,859.38291Z" transform="translate(-62.6061 -261.76263)"/><line class="cls-81" y1="2150.21861" x2="2830.2104" y2="2150.21861"/><path class="cls-82" d="M881.53073,1664.20926s36.29436,227.805,46.3062,335.43708c10.01281,107.63305,21.27661,316.6403,21.27661,316.6403s22.5276,37.54632,95.11737,6.25692c0,0-18.77373,46.30716-56.32005,61.32588-37.54536,15.01873-70.08577,40.04929-77.59464,27.53352-7.50985-12.51479-2.50393-47.55816-7.50985-82.60152-5.00592-35.0424-73.84068-262.8233-50.061-315.38738l-56.32-191.70821s-17.52072,189.20429-26.28156,259.291c-8.76084,70.08577-32.5404,244.05062-16.27068,272.8361,16.27068,28.78452,88.8594,48.08825,90.11144,60.96447,1.25092,12.87622-145.17848,13.40534-146.43044,0-1.252-13.40631,6.25788-67.22235,6.25788-67.22235s-38.17182-300.36962.62557-367.95338c0,0-13.93935-158.94132-19.39922-198.99445-4.71871-34.62123-21.27563-86.82582,12.51577-119.75655Z" transform="translate(-62.6061 -261.76263)"/><path class="cls-83" d="M881.52977,1664.2083l-183.97572-3.3376a65.02089,65.02089,0,0,0-17.24219,29.17774c30.75258,21.01638,117.62079,70.91173,211.5131,40.58419C885.80514,1691.04211,881.52977,1664.2083,881.52977,1664.2083Z" transform="translate(-62.6061 -261.76263)"/><path class="cls-51" d="M1122.22447,1516.5703s35.41731-28.42117,37.33429-27.00633c1.91794,1.41484-12.35,16.67066-9.41815,18.579,2.93185,1.90734,25.126-1.06595,35.59947-7.32865s8.91023,10.24989,4.56354,20.7764c-4.34669,10.52746-32.03152,28.64958-66.78286,15.70012l-15.09678-.70261-1.36762-19.46757Z" transform="translate(-62.6061 -261.76263)"/><path class="cls-84" d="M777.65261,1304.103h41.30124s-8.34448,15.12282,2.91932,22.63266c11.26476,7.50888,45.47357,12.5148,55.90264,21.27564,10.42916,8.76084,105.06262,141.50155,105.06262,141.50155l137.2523,25.0961v27.14126s-159.7799,31.32506-226.0452-70.52429l-15.64414,102.897,21.902,108.88405s-118.27038,63.20335-225.277-20.65014l51.31308-101.37517s-3.12846-98.16093-11.8893-147.95219c-8.76084-49.7903-11.89026-70.612,8.13438-74.12308C742.60925,1335.39631,777.65261,1304.103,777.65261,1304.103Z" transform="translate(-62.6061 -261.76263)"/><path class="cls-85" d="M965.94322,1517.79913c15.01872-22.52856-98.24575-145.17937-98.24575-145.17937s5.63142,45.993,0,77.12624c-2.05865,11.37656,8.55556,26.51865,23.52031,40.07627l2.82775-18.59631c13.58943,18.83436,33.99573,33.3789,53.75051,48.03331C957.15924,1521.50008,962.45045,1523.03829,965.94322,1517.79913Z" transform="translate(-62.6061 -261.76263)"/><polygon class="cls-86" points="811.728 1342.218 672.181 1342.218 704.721 1151.538 844.268 1151.538 811.728 1342.218"/><path class="cls-47" d="M777.65261,1304.103c-1.66832,20.1297-15.436,32.22718-34.20872,33.47914-18.77268,1.252-60.07392.31323-61.32589-16.73909-1.251-17.05231,20.442-14.96667,21.27661-52.09568s-1.252-95.951,59.23928-105.96376c60.49124-10.01184,89.61694,10.42916,92.61432,46.72448,3.75492,45.47252,19.26325,56.94354,16.26972,70.50308-7.09147,32.12309-52.77322,8.55267-57.25773,24.09183Z" transform="translate(-62.6061 -261.76263)"/><path class="cls-51" d="M820.62225,1189.06617s7.40471,6.46606,15.01864,25.03056c4.50186,10.97852,16.26972,11.2638,16.26972,11.2638a23.4442,23.4442,0,0,1-11.99435,12.09844s6.57111,30.03745,1.87746,38.79732c-4.69269,8.76084-23.7786,5.63239-25.65606,11.26477-1.87746,5.63142-1.87746,16.582-1.87746,16.582H777.65261s1.252-27.22028-1.56423-42.239C776.08838,1261.864,803.6219,1239.64966,820.62225,1189.06617Z" transform="translate(-62.6061 -261.76263)"/><polygon class="cls-47" points="827.372 1328.451 687.825 1328.451 720.366 1137.771 859.913 1137.771 827.372 1328.451"/><path class="cls-51" d="M753.87305,2353.833c-5.75479-10.18339-6.4863-38.56986-4.65607-74.06235-19.31722,2.7786-38.80888,1.543-52.72021-.20529,3.807,40.33456,7.31516,68.00976,7.31516,68.00976s-7.50985,53.816-6.25788,67.22138c1.252,13.40631,147.68136,12.87719,146.43044,0C842.73245,2401.92121,770.14373,2382.61748,753.87305,2353.833Z" transform="translate(-62.6061 -261.76263)"/><path class="cls-51" d="M1044.23091,2322.54356c-72.58977,31.2894-95.11737-6.25692-95.11737-6.25692s-1.24811-23.14443-3.27584-57.90443c-21.20536,8.172-42.9282,10.56987-56.95615,11.16067,7.09156,28.33925,12.63527,50.22689,13.92482,59.25856,5.00592,35.04336,0,70.08673,7.50985,82.60152,7.50887,12.51577,40.04928-12.51479,77.59464-27.53352C1025.45718,2368.85072,1044.23091,2322.54356,1044.23091,2322.54356Z" transform="translate(-62.6061 -261.76263)"/><path class="cls-49" d="M937.01509,2352.10875l-31.85707,6.71664c.76717,23.46826-.16192,43.71168,5.1582,52.57757,7.50887,12.51577,40.04928-12.51479,77.59464-27.53352,37.54632-15.01872,56.32005-61.32588,56.32005-61.32588-72.58977,31.2894-95.11737-6.25692-95.11737-6.25692C924.5003,2326.29848,937.01509,2352.10875,937.01509,2352.10875Z" transform="translate(-62.6061 -261.76263)"/><path class="cls-49" d="M843.98449,2414.79646c-1.252-12.87525-73.84076-32.179-90.11144-60.9635-.15325-.27275-.265-.69682-.41154-.99463-20.067,6.50461-22.74148,28.52815-22.74148,28.52815l-29.41106-10.6383s-.27661-.24095-.41925-.36527c-1.95264,16.38152-4.04309,36.85721-3.33567,44.43355C698.806,2428.20277,845.23541,2427.67365,843.98449,2414.79646Z" transform="translate(-62.6061 -261.76263)"/><path class="cls-51" d="M827.50555,1514.049l15.2269-4.38042s32.311-22.04956,40.25842-20.02464c7.94644,2.02588-16.2706,12.30951-15.22786,15.33291,1.04378,3.02341,32.95772,1.01487,39.42378-3.19592,6.46606-4.20983-2.29478,16.85763-8.76084,23.32369s-29.61916,16.687-56.52814,9.38634l-21.06746,5.21506Z" transform="translate(-62.6061 -261.76263)"/><path class="cls-84" d="M735.72587,1340.92363c25.338,8.93818,29.41106,48.80627,14.80966,75.92247-14.60052,27.11717-61.74232,109.71869-61.74232,109.71869l143.51016-17.52168,4.1712,30.81908s-162.70009,79.31693-197.74248,38.85032c-35.04337-40.4666,27.11619-144.76205,36.29436-170.20993S698.17955,1327.67828,735.72587,1340.92363Z" transform="translate(-62.6061 -261.76263)"/><line class="cls-87" x1="651.51162" y1="1219.71708" x2="687.82525" y2="1157.37343"/><path class="cls-88" d="M894.40213,2291.6416l52.167-20.64243c-1.79939-31.22966-4.418-75.20734-7.41924-121.08658L803.86863,1771.23512l-7.44334,50.46977,56.319,191.70821C833.38466,2056.21014,875.41164,2215.13507,894.40213,2291.6416Z" transform="translate(-62.6061 -261.76263)"/></g></g></svg>